<mxfile host="app.diagrams.net" modified="2023-12-05T13:37:15.441Z" agent="Mozilla/5.0 (Windows NT 6.2; Win64; x64) AppleWebKit/537.36 (KHTML, like Gecko) Chrome/103.0.0.0 Safari/537.36 (Chromium GOST)" version="22.1.5" etag="lvQXTxZj0jOPrvURS2h9" type="device">
  <diagram id="v8tKkvfro5LeUopeoSVs" name="Страница — 1">
    <mxGraphModel dx="880" dy="395" grid="1" gridSize="10" guides="1" tooltips="1" connect="1" arrows="1" fold="1" page="1" pageScale="1" pageWidth="827" pageHeight="1169" math="0" shadow="0">
      <root>
        <mxCell id="0" />
        <mxCell id="1" parent="0" />
        <mxCell id="69x0fvGCuE1sJerOUj-b-1" style="edgeStyle=orthogonalEdgeStyle;rounded=0;orthogonalLoop=1;jettySize=auto;html=1;" edge="1" parent="1" source="69x0fvGCuE1sJerOUj-b-2" target="69x0fvGCuE1sJerOUj-b-4">
          <mxGeometry relative="1" as="geometry">
            <mxPoint x="410" y="150" as="targetPoint" />
          </mxGeometry>
        </mxCell>
        <mxCell id="69x0fvGCuE1sJerOUj-b-2" value="Start" style="rounded=1;whiteSpace=wrap;html=1;" vertex="1" parent="1">
          <mxGeometry x="120" y="80" width="100" height="30" as="geometry" />
        </mxCell>
        <mxCell id="69x0fvGCuE1sJerOUj-b-3" style="edgeStyle=orthogonalEdgeStyle;rounded=0;orthogonalLoop=1;jettySize=auto;html=1;" edge="1" parent="1" source="69x0fvGCuE1sJerOUj-b-4" target="69x0fvGCuE1sJerOUj-b-6">
          <mxGeometry relative="1" as="geometry">
            <mxPoint x="410" y="210" as="targetPoint" />
          </mxGeometry>
        </mxCell>
        <mxCell id="69x0fvGCuE1sJerOUj-b-4" value="array[]" style="shape=parallelogram;perimeter=parallelogramPerimeter;whiteSpace=wrap;html=1;fixedSize=1;" vertex="1" parent="1">
          <mxGeometry x="110" y="140" width="120" height="40" as="geometry" />
        </mxCell>
        <mxCell id="69x0fvGCuE1sJerOUj-b-5" style="edgeStyle=orthogonalEdgeStyle;rounded=0;orthogonalLoop=1;jettySize=auto;html=1;" edge="1" parent="1" source="69x0fvGCuE1sJerOUj-b-6" target="69x0fvGCuE1sJerOUj-b-9">
          <mxGeometry relative="1" as="geometry">
            <mxPoint x="410" y="300" as="targetPoint" />
          </mxGeometry>
        </mxCell>
        <mxCell id="69x0fvGCuE1sJerOUj-b-6" value="i = 0&lt;br&gt;sz = 0&lt;br&gt;j = 0" style="rounded=0;whiteSpace=wrap;html=1;" vertex="1" parent="1">
          <mxGeometry x="110" y="210" width="120" height="60" as="geometry" />
        </mxCell>
        <mxCell id="69x0fvGCuE1sJerOUj-b-7" style="edgeStyle=orthogonalEdgeStyle;rounded=0;orthogonalLoop=1;jettySize=auto;html=1;entryX=0;entryY=0.5;entryDx=0;entryDy=0;" edge="1" parent="1" source="69x0fvGCuE1sJerOUj-b-9" target="69x0fvGCuE1sJerOUj-b-12">
          <mxGeometry relative="1" as="geometry" />
        </mxCell>
        <mxCell id="69x0fvGCuE1sJerOUj-b-8" value="" style="edgeStyle=orthogonalEdgeStyle;rounded=0;orthogonalLoop=1;jettySize=auto;html=1;" edge="1" parent="1" source="69x0fvGCuE1sJerOUj-b-9" target="69x0fvGCuE1sJerOUj-b-21">
          <mxGeometry relative="1" as="geometry" />
        </mxCell>
        <mxCell id="69x0fvGCuE1sJerOUj-b-9" value="i &amp;lt; array.lenght" style="rhombus;whiteSpace=wrap;html=1;" vertex="1" parent="1">
          <mxGeometry x="75" y="350" width="190" height="80" as="geometry" />
        </mxCell>
        <mxCell id="69x0fvGCuE1sJerOUj-b-11" value="" style="edgeStyle=orthogonalEdgeStyle;rounded=0;orthogonalLoop=1;jettySize=auto;html=1;" edge="1" parent="1" source="69x0fvGCuE1sJerOUj-b-12" target="69x0fvGCuE1sJerOUj-b-18">
          <mxGeometry relative="1" as="geometry" />
        </mxCell>
        <mxCell id="69x0fvGCuE1sJerOUj-b-45" value="" style="edgeStyle=orthogonalEdgeStyle;rounded=0;orthogonalLoop=1;jettySize=auto;html=1;" edge="1" parent="1" source="69x0fvGCuE1sJerOUj-b-12" target="69x0fvGCuE1sJerOUj-b-43">
          <mxGeometry relative="1" as="geometry" />
        </mxCell>
        <mxCell id="69x0fvGCuE1sJerOUj-b-12" value="array[i].enght &amp;lt;= 3" style="rhombus;whiteSpace=wrap;html=1;" vertex="1" parent="1">
          <mxGeometry x="310" y="350" width="190" height="80" as="geometry" />
        </mxCell>
        <mxCell id="69x0fvGCuE1sJerOUj-b-13" value="Yes" style="text;html=1;strokeColor=none;fillColor=none;align=center;verticalAlign=middle;whiteSpace=wrap;rounded=0;" vertex="1" parent="1">
          <mxGeometry x="250" y="400" width="60" height="30" as="geometry" />
        </mxCell>
        <mxCell id="69x0fvGCuE1sJerOUj-b-16" value="Yes" style="text;html=1;strokeColor=none;fillColor=none;align=center;verticalAlign=middle;whiteSpace=wrap;rounded=0;" vertex="1" parent="1">
          <mxGeometry x="490" y="400" width="60" height="30" as="geometry" />
        </mxCell>
        <mxCell id="69x0fvGCuE1sJerOUj-b-51" style="edgeStyle=orthogonalEdgeStyle;rounded=0;orthogonalLoop=1;jettySize=auto;html=1;" edge="1" parent="1" source="69x0fvGCuE1sJerOUj-b-18">
          <mxGeometry relative="1" as="geometry">
            <mxPoint x="170" y="295" as="targetPoint" />
          </mxGeometry>
        </mxCell>
        <mxCell id="69x0fvGCuE1sJerOUj-b-18" value="i += 1" style="rounded=0;whiteSpace=wrap;html=1;" vertex="1" parent="1">
          <mxGeometry x="367.5" y="280" width="75" height="30" as="geometry" />
        </mxCell>
        <mxCell id="69x0fvGCuE1sJerOUj-b-19" value="No" style="text;html=1;strokeColor=none;fillColor=none;align=center;verticalAlign=middle;whiteSpace=wrap;rounded=0;" vertex="1" parent="1">
          <mxGeometry x="400" y="320" width="60" height="30" as="geometry" />
        </mxCell>
        <mxCell id="69x0fvGCuE1sJerOUj-b-20" value="" style="edgeStyle=orthogonalEdgeStyle;rounded=0;orthogonalLoop=1;jettySize=auto;html=1;" edge="1" parent="1" source="69x0fvGCuE1sJerOUj-b-21" target="69x0fvGCuE1sJerOUj-b-25">
          <mxGeometry relative="1" as="geometry" />
        </mxCell>
        <mxCell id="69x0fvGCuE1sJerOUj-b-21" value="new array[sz]&lt;br&gt;i = 0" style="rounded=0;whiteSpace=wrap;html=1;" vertex="1" parent="1">
          <mxGeometry x="120" y="460" width="100" height="40" as="geometry" />
        </mxCell>
        <mxCell id="69x0fvGCuE1sJerOUj-b-22" value="No" style="text;html=1;strokeColor=none;fillColor=none;align=center;verticalAlign=middle;whiteSpace=wrap;rounded=0;" vertex="1" parent="1">
          <mxGeometry x="170" y="430" width="60" height="30" as="geometry" />
        </mxCell>
        <mxCell id="69x0fvGCuE1sJerOUj-b-24" value="" style="edgeStyle=orthogonalEdgeStyle;rounded=0;orthogonalLoop=1;jettySize=auto;html=1;" edge="1" parent="1" source="69x0fvGCuE1sJerOUj-b-25" target="69x0fvGCuE1sJerOUj-b-32">
          <mxGeometry relative="1" as="geometry" />
        </mxCell>
        <mxCell id="69x0fvGCuE1sJerOUj-b-56" value="" style="edgeStyle=orthogonalEdgeStyle;rounded=0;orthogonalLoop=1;jettySize=auto;html=1;" edge="1" parent="1" source="69x0fvGCuE1sJerOUj-b-25" target="69x0fvGCuE1sJerOUj-b-39">
          <mxGeometry relative="1" as="geometry" />
        </mxCell>
        <mxCell id="69x0fvGCuE1sJerOUj-b-25" value="i &amp;lt; array.lenght" style="rhombus;whiteSpace=wrap;html=1;" vertex="1" parent="1">
          <mxGeometry x="75" y="580" width="190" height="80" as="geometry" />
        </mxCell>
        <mxCell id="69x0fvGCuE1sJerOUj-b-28" value="End" style="rounded=1;whiteSpace=wrap;html=1;" vertex="1" parent="1">
          <mxGeometry x="110" y="800" width="120" height="30" as="geometry" />
        </mxCell>
        <mxCell id="69x0fvGCuE1sJerOUj-b-29" value="No" style="text;html=1;strokeColor=none;fillColor=none;align=center;verticalAlign=middle;whiteSpace=wrap;rounded=0;" vertex="1" parent="1">
          <mxGeometry x="170" y="660" width="60" height="30" as="geometry" />
        </mxCell>
        <mxCell id="69x0fvGCuE1sJerOUj-b-31" style="edgeStyle=orthogonalEdgeStyle;rounded=0;orthogonalLoop=1;jettySize=auto;html=1;" edge="1" parent="1" source="69x0fvGCuE1sJerOUj-b-32" target="69x0fvGCuE1sJerOUj-b-35">
          <mxGeometry relative="1" as="geometry">
            <mxPoint x="385" y="540" as="targetPoint" />
          </mxGeometry>
        </mxCell>
        <mxCell id="69x0fvGCuE1sJerOUj-b-32" value="array[i].enght &amp;lt;= 3" style="rhombus;whiteSpace=wrap;html=1;" vertex="1" parent="1">
          <mxGeometry x="310" y="580" width="190" height="80" as="geometry" />
        </mxCell>
        <mxCell id="69x0fvGCuE1sJerOUj-b-54" style="edgeStyle=orthogonalEdgeStyle;rounded=0;orthogonalLoop=1;jettySize=auto;html=1;entryX=1;entryY=0.5;entryDx=0;entryDy=0;" edge="1" parent="1" source="69x0fvGCuE1sJerOUj-b-33" target="69x0fvGCuE1sJerOUj-b-35">
          <mxGeometry relative="1" as="geometry">
            <Array as="points">
              <mxPoint x="625" y="525" />
            </Array>
          </mxGeometry>
        </mxCell>
        <mxCell id="69x0fvGCuE1sJerOUj-b-33" value="new array[j] = array[i]&amp;nbsp;&lt;br&gt;j += 1" style="rounded=0;whiteSpace=wrap;html=1;" vertex="1" parent="1">
          <mxGeometry x="550" y="595" width="130" height="50" as="geometry" />
        </mxCell>
        <mxCell id="69x0fvGCuE1sJerOUj-b-55" style="edgeStyle=orthogonalEdgeStyle;rounded=0;orthogonalLoop=1;jettySize=auto;html=1;" edge="1" parent="1" source="69x0fvGCuE1sJerOUj-b-35">
          <mxGeometry relative="1" as="geometry">
            <mxPoint x="170" y="525" as="targetPoint" />
          </mxGeometry>
        </mxCell>
        <mxCell id="69x0fvGCuE1sJerOUj-b-35" value="i +=1" style="rounded=0;whiteSpace=wrap;html=1;" vertex="1" parent="1">
          <mxGeometry x="367.5" y="510" width="75" height="30" as="geometry" />
        </mxCell>
        <mxCell id="69x0fvGCuE1sJerOUj-b-36" value="Yes" style="text;html=1;strokeColor=none;fillColor=none;align=center;verticalAlign=middle;whiteSpace=wrap;rounded=0;" vertex="1" parent="1">
          <mxGeometry x="250" y="590" width="60" height="30" as="geometry" />
        </mxCell>
        <mxCell id="69x0fvGCuE1sJerOUj-b-37" value="Yes" style="text;html=1;strokeColor=none;fillColor=none;align=center;verticalAlign=middle;whiteSpace=wrap;rounded=0;" vertex="1" parent="1">
          <mxGeometry x="490" y="590" width="60" height="30" as="geometry" />
        </mxCell>
        <mxCell id="69x0fvGCuE1sJerOUj-b-38" value="No" style="text;html=1;strokeColor=none;fillColor=none;align=center;verticalAlign=middle;whiteSpace=wrap;rounded=0;" vertex="1" parent="1">
          <mxGeometry x="400" y="550" width="60" height="30" as="geometry" />
        </mxCell>
        <mxCell id="69x0fvGCuE1sJerOUj-b-57" value="" style="edgeStyle=orthogonalEdgeStyle;rounded=0;orthogonalLoop=1;jettySize=auto;html=1;" edge="1" parent="1" source="69x0fvGCuE1sJerOUj-b-39" target="69x0fvGCuE1sJerOUj-b-28">
          <mxGeometry relative="1" as="geometry" />
        </mxCell>
        <mxCell id="69x0fvGCuE1sJerOUj-b-39" value="new array[]" style="shape=document;whiteSpace=wrap;html=1;boundedLbl=1;" vertex="1" parent="1">
          <mxGeometry x="110" y="700" width="120" height="60" as="geometry" />
        </mxCell>
        <mxCell id="69x0fvGCuE1sJerOUj-b-50" style="edgeStyle=orthogonalEdgeStyle;rounded=0;orthogonalLoop=1;jettySize=auto;html=1;entryX=1;entryY=0.5;entryDx=0;entryDy=0;" edge="1" parent="1" source="69x0fvGCuE1sJerOUj-b-43" target="69x0fvGCuE1sJerOUj-b-18">
          <mxGeometry relative="1" as="geometry">
            <Array as="points">
              <mxPoint x="570" y="295" />
            </Array>
          </mxGeometry>
        </mxCell>
        <mxCell id="69x0fvGCuE1sJerOUj-b-43" value="sz += 1" style="rounded=0;whiteSpace=wrap;html=1;" vertex="1" parent="1">
          <mxGeometry x="540" y="375" width="70" height="30" as="geometry" />
        </mxCell>
        <mxCell id="69x0fvGCuE1sJerOUj-b-53" style="edgeStyle=orthogonalEdgeStyle;rounded=0;orthogonalLoop=1;jettySize=auto;html=1;entryX=0;entryY=0.5;entryDx=0;entryDy=0;" edge="1" parent="1" source="69x0fvGCuE1sJerOUj-b-32" target="69x0fvGCuE1sJerOUj-b-33">
          <mxGeometry relative="1" as="geometry" />
        </mxCell>
        <mxCell id="69x0fvGCuE1sJerOUj-b-58" value="&lt;font style=&quot;font-size: 21px;&quot;&gt;Блок-схема функции ResultArray()&amp;nbsp;&lt;/font&gt;" style="text;html=1;align=center;verticalAlign=middle;resizable=0;points=[];autosize=1;strokeColor=none;fillColor=none;" vertex="1" parent="1">
          <mxGeometry y="5" width="360" height="40" as="geometry" />
        </mxCell>
      </root>
    </mxGraphModel>
  </diagram>
</mxfile>
